<svg width="89" height="90" viewBox="0 0 89 90" fill="none" xmlns="http://www.w3.org/2000/svg">
<path d="M44.7415 0.649713C44.2552 0.450241 43.7099 0.450241 43.2236 0.649713L7.37451 15.3538C5.7198 16.0325 5.7198 18.3759 7.37451 19.0546L43.2236 33.7586C43.7099 33.9581 44.2552 33.9581 44.7415 33.7586L80.5906 19.0546C82.2453 18.3759 82.2453 16.0325 80.5905 15.3538L44.7415 0.649713ZM-0.143188 20.8819V71.4109C-0.143188 72.2221 0.346864 72.953 1.09735 73.2611L38.9602 88.803C40.2763 89.3432 41.7197 88.3754 41.7197 86.9528V39.4087C41.7197 38.5975 41.2296 37.8666 40.4791 37.5585L-0.141322 20.8847C-0.142452 20.8842 -0.143188 20.8831 -0.143188 20.8819ZM88.1082 20.8799C88.1082 20.8811 88.1075 20.8822 88.1064 20.8827L47.4859 37.5565C46.7354 37.8645 46.2454 38.5954 46.2454 39.4067V86.9507C46.2454 88.3734 47.6888 89.3411 49.0048 88.8009L86.8677 73.2591C87.6182 72.951 88.1082 72.2201 88.1082 71.4089V20.8799Z" fill="#FF72B5"/>
</svg>
