<svg width="91" height="91" viewBox="0 0 91 91" fill="none" xmlns="http://www.w3.org/2000/svg">
<path d="M61.5331 9.3928V8.46297C61.5345 6.24687 60.6556 4.12148 59.0895 2.55396C57.5235 0.985869 55.3987 0.104822 53.1826 0.103394H8.45349C6.23739 0.104091 4.11254 0.985798 2.54663 2.55396C0.98063 4.12136 0.101779 6.24687 0.103029 8.46297V53.1921C0.103726 55.4061 0.983344 57.5295 2.54931 59.0956C4.11531 60.6609 6.23864 61.5411 8.45331 61.5411H9.38315V22.7424C9.38733 19.2031 10.7957 15.8102 13.2986 13.3073C15.8007 10.8051 19.1936 9.39744 22.733 9.39262L61.5331 9.3928Z" fill="#FF72B5"/>
<path d="M37.0229 23.672H75.8234V22.7422C75.8227 20.5275 74.943 18.4041 73.3771 16.8387C71.8111 15.2727 69.6877 14.3932 67.4731 14.3925H22.7422H22.7429C20.5268 14.3911 18.4007 15.27 16.8331 16.8353C15.265 18.4013 14.3833 20.5261 14.3826 22.7422V67.4696C14.3833 69.6857 15.265 71.8105 16.8331 73.3764C18.4005 74.9417 20.5268 75.8207 22.7429 75.8193H23.6727V37.0206C23.6769 33.4813 25.0852 30.0884 27.5881 27.5855C30.0903 25.0826 33.4839 23.6751 37.0225 23.6708L37.0229 23.672Z" fill="#FF72B5"/>
<path d="M37.0202 28.6736H81.7511C86.3633 28.6736 90.103 33.2858 90.103 37.0255V81.7529C90.103 86.3651 86.3641 90.1048 81.7511 90.1048H37.0202C32.408 90.1048 28.6683 85.4926 28.6683 81.7529V37.0255C28.6683 32.4133 32.4073 28.6736 37.0202 28.6736Z" fill="#FF72B5"/>
</svg>
